# xmcd CD database file
#
# Track frame offsets:
#	150
#	17083
#	33646
#	45626
#	58703
#	73034
#	88643
#	102414
#	116200
#	133820
#	146575
#	162657
#	176018
#	188957
#	205120
#	218992
#	235066
#	251279
#	269625
#
# Disc length: 3806 seconds
#
# Revision: 1
# Processed by: cddbd v1.5.1PL2 Copyright (c) Steve Scherf et al.
# Submitted via: CDex 1.51
#
DISCID=260edc13
DTITLE=Country Dance Kings - The Very Best of Country Line Dancing II
DYEAR=1998
DGENRE=Country
TTITLE0=Two Piña Coladas 
TTITLE1=Here Comes The Rain
TTITLE2=Little Bitty
TTITLE3=Perfect Love
TTITLE4=Somebody Slap Me
TTITLE5=You've Got To Talk To Me
TTITLE6=The Fear Of Being Alone
TTITLE7=A Little More Love
TTITLE8=There Goes
TTITLE9=Redneck Rythm And Blues
TTITLE10=A Broken Wing
TTITLE11=Any Minute Now
TTITLE12=Then What
TTITLE13=Just Between You And Me
TTITLE14=What If I Do
TTITLE15=If I Never Stop Loving You
TTITLE16=Don't Be Stupid (You Know I Love You)
TTITLE17=Closer To Heaven
TTITLE18=???????????????
EXTD=year 1998 YEAR: 1998
EXTT0=
EXTT1=
EXTT2=
EXTT3=
EXTT4=
EXTT5=
EXTT6=
EXTT7=
EXTT8=
EXTT9=
EXTT10=
EXTT11=
EXTT12=
EXTT13=
EXTT14=
EXTT15=
EXTT16=
EXTT17=
EXTT18=
PLAYORDER=
